<?xml version="1.0" encoding="UTF-8" standalone="no"?>
<!-- Created with Inkscape (http://www.inkscape.org/) -->

<svg
   width="210mm"
   height="210mm"
   viewBox="0 0 210 210"
   version="1.1"
   id="svg98131"
   sodipodi:docname="Logo.svg"
   inkscape:version="1.1.2 (b8e25be833, 2022-02-05)"
   xmlns:inkscape="http://www.inkscape.org/namespaces/inkscape"
   xmlns:sodipodi="http://sodipodi.sourceforge.net/DTD/sodipodi-0.dtd"
   xmlns="http://www.w3.org/2000/svg"
   xmlns:svg="http://www.w3.org/2000/svg">
  <sodipodi:namedview
     id="namedview98133"
     pagecolor="#ffffff"
     bordercolor="#666666"
     borderopacity="1.0"
     inkscape:pageshadow="2"
     inkscape:pageopacity="0.0"
     inkscape:pagecheckerboard="0"
     inkscape:document-units="mm"
     showgrid="false"
     inkscape:zoom="0.37014941"
     inkscape:cx="663.24569"
     inkscape:cy="529.5159"
     inkscape:window-width="1920"
     inkscape:window-height="1017"
     inkscape:window-x="-8"
     inkscape:window-y="-8"
     inkscape:window-maximized="1"
     inkscape:current-layer="layer8"
     height="210mm" />
  <defs
     id="defs98128" />
  <g
     inkscape:groupmode="layer"
     id="layer8"
     inkscape:label="Layer 2">
    <g
       id="g114385"
       transform="matrix(1.2445151,0,0,1.2445151,-16.797111,4.191189)"
       style="fill:#640802;fill-opacity:1">
      <path
         style="fill:#640802;fill-opacity:1;stroke:none;stroke-width:0.499999;paint-order:fill markers stroke"
         id="path98281"
         d="m 17.382989,121.43189 c 2.311996,-0.63002 4.295443,-0.9666 6.983529,-2.88523 2.101084,-0.99602 4.025059,-2.2518 6.071799,-3.35265 2.70261,-1.46638 5.067554,-3.58244 7.66621,-5.22274 1.555522,-0.90992 3.517174,-2.15 4.945326,-3.24991 1.525,-1.28077 3.391694,-2.73231 5.035662,-3.84733 1.763961,-1.14965 2.907416,-2.0941 4.775914,-3.464059 2.712741,-1.970201 3.571972,-3.890962 5.727566,-5.504192 1.840929,-1.39763 3.058195,-2.836418 4.685776,-4.472927 1.527649,-1.42191 2.915318,-2.976713 4.465917,-4.489103 3.377059,-3.293842 6.517787,-4.618581 8.258443,-6.209516 1.441722,-0.981223 3.181574,-2.979538 4.187274,-4.085901 1.287708,-1.404266 2.769822,-2.696899 4.064045,-4.09268 1.516082,-1.635049 1.434832,-1.453249 3.498161,-3.336954 1.598321,-1.459179 2.694274,-2.726751 4.409755,-4.136535 2.841275,-2.334965 2.821196,-2.971636 4.63632,-4.503005 2.305779,-1.945321 3.935274,-3.290121 6.379064,-5.078688 1.60298,-0.78046 2.74387,-2.096166 4.28062,-3.122108 1.40891,-0.991717 1.84539,-1.428673 3.29238,-2.362446 2.19843,-1.60419 2.7429,-2.317106 4.60304,-3.036268 1.8985,-0.733987 3.52607,-0.906976 5.51944,-1.663151 1.42891,-0.165515 3.05011,-0.836657 4.38483,-0.907282 1.74973,0.07756 4.99397,-0.200036 6.67793,0.06606 3.50716,0.132437 5.00269,1.840267 7.44844,2.762967 2.11065,1.286781 6.77441,3.7806 8.64371,4.587822 1.76429,1.798689 3.06503,3.439591 3.63328,3.976344 0.0181,0.72079 0.30856,1.675708 0.7915,2.047725 0.45161,0.347887 0.97662,0.321911 0.97662,0.321911 0.45075,0.693251 0.77224,0.971075 1.26575,1.746799 0.35452,0.557264 -0.3183,0.62156 -0.0392,1.565033 0.94801,2.712108 1.97657,4.518628 2.83778,6.656856 0.8364,2.322346 1.70348,4.261339 2.09663,6.690137 0.29085,1.786631 0.53072,3.346352 0.57852,5.153187 0.0323,1.690872 0.23847,2.04175 0.23037,3.732739 -0.006,1.084805 0.0253,2.040429 0.26689,3.098012 0.19195,0.840138 1.49648,0.972586 1.96806,0.248954 0.37693,-0.578388 0.53767,-1.145355 0.55835,-2.30467 0.0432,-2.422722 -0.19301,-4.191354 -0.48715,-7.125888 -0.18167,-1.812443 -0.84213,-3.500047 -1.75495,-4.892645 -0.42078,-2.452095 -0.86588,-3.545875 -1.70767,-5.895515 -0.20371,-0.501928 -0.92009,-1.651033 -1.40286,-3.251275 -0.35702,-1.183449 -0.24356,-2.034234 -0.63827,-2.781789 -0.36628,-0.693712 -1.1539,-0.621367 -1.1539,-0.621367 -0.5862,-0.573816 -0.54298,-1.230335 -1.38316,-1.514084 -0.70948,-0.239612 -0.19488,-1.537024 -0.48866,-1.875945 -0.68222,-0.841084 -1.32003,-1.086753 -1.7536,-1.490994 -0.64889,-0.604985 -1.06188,-1.260503 -2.25864,-2.355244 -1.61772,-1.386797 -0.65237,-1.534807 -2.51611,-2.57287 -2.11991,-1.148901 -5.18407,-3.824599 -7.45341,-4.638454 -5.27118,-1.890404 -10.65157,-3.443845 -15.45868,-2.482101 -1.82008,0.500346 -4.34268,0.505205 -6.08741,1.228345 -1.2904,0.539403 -2.74573,0.683353 -3.85977,1.091398 -1.21201,0.443935 -2.06928,1.143034 -3.14633,1.515756 -1.27886,0.827902 -5.09669,3.402819 -6.24883,4.193067 -1.52062,1.042999 -2.82302,1.795147 -3.93397,2.687787 -1.6845,1.353476 -2.98688,2.739773 -4.401312,3.658422 -0.827794,0.537639 -2.964099,2.637383 -3.885455,3.344215 -0.761612,0.584282 -1.796376,1.878837 -2.553447,2.139794 -2.133986,0.735569 -3.30935,1.62104 -5.180259,3.099199 -1.838946,1.452905 -4.373429,4.292425 -6.134647,5.843231 -1.44503,1.272393 -2.843647,2.753067 -4.142859,4.176541 -1.001044,1.104519 -3.263515,3.307443 -4.417053,4.254679 -3.085653,2.533806 -5.138172,4.116279 -6.597697,5.518757 -1.369876,1.556655 -2.803973,2.839647 -4.304222,4.254294 -1.628399,1.615279 -4.734404,4.11483 -6.448378,5.642418 -4.344363,3.871935 -6.815593,5.965291 -8.342625,6.934497 -1.680851,1.06683 -4.454436,3.20675 -5.995333,4.47241 -1.450991,1.07338 -2.348965,1.98986 -3.899709,2.91233 -0.708123,0.4446 -1.904923,1.56603 -2.570498,2.0721 -2.776956,2.11145 -3.538206,2.46479 -5.712117,3.98607 -2.073181,1.45079 -4.585276,2.87591 -6.484536,4.01611 l -3.985086,2.39241 z"
         sodipodi:nodetypes="cccccccccsccsssscccsccccccscscccccssssccsssscsccsccscssssssscsccssccssscc" />
      <circle
         id="path98283"
         style="fill:#640802;fill-opacity:1;stroke:#ffffff;stroke-width:0.264583"
         cx="160.47292"
         cy="85.061371"
         r="0.089963019" />
      <circle
         id="path98285"
         style="fill:#640802;fill-opacity:1;stroke:#ffffff;stroke-width:0.264583"
         cx="160.47292"
         cy="85.061371"
         r="0.089963019" />
      <path
         style="fill:#640802;fill-opacity:1;stroke:none;stroke-width:0.499999;paint-order:fill markers stroke"
         id="path98287"
         d="m 162.54655,83.79809 c -2.50188,-1.234428 -2.24729,-2.495667 -4.07567,-4.055531 -1.78812,-1.525522 -4.88098,-3.295839 -7.04639,-3.889305 -1.99547,-0.834406 -4.16226,-1.076463 -6.21932,-1.509544 -1.76149,-0.38101 -3.9983,-0.541649 -5.79468,-0.6411 -1.54256,-0.02556 -4.55344,1.311413 -5.83344,2.096125 -2.72662,1.671575 -4.136,2.550351 -5.65794,4.281588 -0.92369,1.068459 -2.26817,2.766683 -2.9264,4.016022 -0.76033,1.462976 -1.37293,3.202577 -1.7119,4.730945 -0.40057,1.80613 -0.59815,4.866951 -0.36188,7.230579 0.19,3.878808 1.09174,4.922171 2.07866,6.569491 0.77087,2.77627 3.40729,4.46549 3.40729,4.46549 0.4562,1.45212 1.4735,2.10977 2.51089,2.74823 0.2169,-0.1446 3.33631,3.06247 5.74704,4.03631 1.9077,0.66245 3.36176,1.34029 5.29869,1.93422 2.23208,0.48021 4.55629,0.67909 6.79149,0.56466 2.21481,0.0202 4.76611,-0.24443 7.09295,-0.50791 1.48138,0.0236 3.83901,-0.16596 5.34098,-0.52685 1.28203,-0.15707 2.06701,-0.84446 3.19269,-1.2307 1.54575,-0.64921 2.02324,-0.56262 3.57777,-1.19035 2.47761,-0.93044 4.42816,-2.00791 6.84683,-3.1784 0.7032,-0.42983 1.89937,-0.78223 2.23529,-1.60396 0,0 0.44843,-1.09094 -0.99693,-0.60404 -0.636,0.21424 -1.24886,0.34352 -3.09613,1.40814 -1.1014,0.49366 -1.86591,0.93467 -2.5291,1.27038 -1.53158,0.63602 -2.36598,0.9907 -3.88059,1.66729 -1.12489,0.38872 -2.27462,0.92692 -3.44923,1.13806 -2.76462,2.02029 -3.08397,1.08999 -4.62052,1.33001 -2.09104,0.37313 -4.24196,0.56098 -6.36048,0.68453 -2.22634,0.11051 -4.20686,0.0273 -6.43132,-0.15695 -1.98159,-0.18272 -5.93955,-1.48413 -5.93955,-1.48413 0,0 -2.84346,-1.11794 -4.17951,-1.01929 -0.57002,-0.37341 -2.07631,-2.03019 -3.31429,-2.8308 0.0342,-0.88121 -0.89603,-2.68098 -2.0432,-2.45684 -0.37694,-0.56122 -0.34978,-1.12226 -0.70795,-1.85186 -0.36719,-0.74797 -1.11887,-1.66512 -1.43503,-2.28358 -0.68715,-1.34269 -1.14499,-1.74047 -1.37442,-3.236429 -1.46734,-3.520046 -1.00869,-6.567862 -0.86017,-8.035481 0.12734,-1.469919 0.31216,-3.386028 0.79701,-4.784967 0.45619,-1.559549 0.72812,-2.285813 1.50924,-3.719055 0.69293,-1.207233 1.13867,-1.620559 2.10584,-2.624035 1.15588,-1.199271 1.44449,-1.583703 3.16193,-2.920513 1.19342,-0.928923 2.32154,-1.500022 4.03478,-2.163342 1.67447,-0.648314 2.89346,-1.096097 4.98968,-0.618001 2.7275,0.393242 4.24663,0.758317 6.26749,1.290813 2.43122,0.640625 5.32213,1.430115 7.11135,2.930977 1.43308,1.16209 3.48261,2.626673 4.30668,4.2855 1.30926,2.635505 1.20329,1.390262 1.73792,1.895523 z"
         sodipodi:nodetypes="cscccsccsccccccccccccsscccccccccccscccccssscscscc" />
      <ellipse
         style="fill:#640802;fill-opacity:1;stroke:none;stroke-width:0.499999;paint-order:fill markers stroke"
         id="path113720"
         cx="56.31295"
         cy="102.03791"
         rx="1.0498646"
         ry="1.0275271" />
      <ellipse
         style="fill:#640802;fill-opacity:1;stroke:none;stroke-width:0.499999;paint-order:fill markers stroke"
         id="path113722"
         cx="66.141472"
         cy="94.331451"
         rx="1.5859658"
         ry="1.5412905" />
      <ellipse
         style="fill:#640802;fill-opacity:1;stroke:none;stroke-width:0.48007;paint-order:fill markers stroke"
         id="path113826"
         cx="75.679604"
         cy="86.379295"
         rx="1.2955776"
         ry="1.3179152" />
      <ellipse
         style="fill:#640802;fill-opacity:1;stroke:none;stroke-width:0.499999;paint-order:fill markers stroke"
         id="path113966"
         cx="85.016693"
         cy="78.382446"
         rx="1.4296029"
         ry="1.4072653" />
      <ellipse
         style="fill:#640802;fill-opacity:1;stroke:none;stroke-width:0.499999;paint-order:fill markers stroke"
         id="path114070"
         cx="94.420799"
         cy="70.251579"
         rx="1.0498646"
         ry="1.1392148" />
      <circle
         style="fill:#640802;fill-opacity:1;stroke:none;stroke-width:0.483328;paint-order:fill markers stroke"
         id="path114072"
         cx="103.48985"
         cy="61.763309"
         r="1.2732401" />
      <ellipse
         style="fill:#640802;fill-opacity:1;stroke:none;stroke-width:0.499999;paint-order:fill markers stroke"
         id="path114176"
         cx="113.25136"
         cy="54.123875"
         rx="1.2062274"
         ry="1.1392149" />
      <ellipse
         style="fill:#640802;fill-opacity:1;stroke:none;stroke-width:0.472741;paint-order:fill markers stroke"
         id="path114180"
         cx="124.6435"
         cy="49.388309"
         rx="1.3402528"
         ry="1.3179152" />
      <circle
         style="fill:#640802;fill-opacity:1;stroke:none;stroke-width:0.499999;paint-order:fill markers stroke"
         id="path114284"
         cx="136.97383"
         cy="50.08078"
         r="1.3849277" />
      <ellipse
         style="fill:#640802;fill-opacity:1;stroke:none;stroke-width:0.499999;paint-order:fill markers stroke"
         id="path114286"
         cx="146.713"
         cy="57.965931"
         rx="1.518953"
         ry="1.5412905" />
      <ellipse
         style="fill:#640802;fill-opacity:1;stroke:none;stroke-width:0.499999;paint-order:fill markers stroke"
         id="path114288"
         cx="152.9675"
         cy="68.375229"
         rx="1.2955776"
         ry="1.4072653" />
    </g>
  </g>
</svg>
