<?xml version="1.0" encoding="UTF-8" standalone="no"?>
<!-- Created with Inkscape (http://www.inkscape.org/) -->

<svg
   width="190mm"
   height="190mm"
   viewBox="0 0 190 190"
   version="1.1"
   id="svg45107"
   inkscape:version="1.1.2 (b8e25be833, 2022-02-05)"
   sodipodi:docname="marooncirclehealthcare.svg"
   xmlns:inkscape="http://www.inkscape.org/namespaces/inkscape"
   xmlns:sodipodi="http://sodipodi.sourceforge.net/DTD/sodipodi-0.dtd"
   xmlns="http://www.w3.org/2000/svg"
   xmlns:svg="http://www.w3.org/2000/svg">
  <sodipodi:namedview
     id="namedview45109"
     pagecolor="#ffffff"
     bordercolor="#666666"
     borderopacity="1.0"
     inkscape:pageshadow="2"
     inkscape:pageopacity="0.0"
     inkscape:pagecheckerboard="0"
     inkscape:document-units="mm"
     showgrid="false"
     inkscape:zoom="1.0469406"
     inkscape:cx="241.17891"
     inkscape:cy="497.64044"
     inkscape:window-width="1920"
     inkscape:window-height="1017"
     inkscape:window-x="-8"
     inkscape:window-y="-8"
     inkscape:window-maximized="1"
     inkscape:current-layer="layer5"
     width="190mm" />
  <defs
     id="defs45104" />
  <g
     inkscape:groupmode="layer"
     id="layer5"
     inkscape:label="Layer 1">
    <g
       id="g1653">
      <circle
         style="fill:#800000;fill-opacity:1;stroke:none;stroke-width:6.76439;paint-order:fill markers stroke"
         id="path22382"
         cx="94.974419"
         cy="94.934143"
         r="93.25" />
      <g
         id="g97529"
         transform="translate(-5.81257,-16.932272)">
        <path
           style="fill:none;stroke:#ffffff;stroke-width:0.665;stroke-linecap:butt;stroke-linejoin:miter;stroke-miterlimit:4;stroke-dasharray:none;stroke-opacity:1"
           d="m 59.32852,122.45443 c 0.121872,-5.60631 -0.259078,-11.12882 -0.38899,-16.69317 l 0.0036,0.43392 15.072361,-1.52145 0.996375,16.68674 0.221021,0.435 16.298743,-0.93333 0.966315,10.26146 0.333985,4.89896 -16.236374,1.37038 c -0.156523,0.0258 -0.313036,0.0516 -0.46955,0.0775 l 0.003,0.20053 0.04709,0.10667 0.468694,16.35912 0.01516,1.30943 -0.0042,0.68182 0.0042,-0.68182 c -3.056365,0.2239 -10.274764,0.64468 -15.425837,0.77231 l -0.441056,-0.0102 -0.003,-0.0928 -0.223941,-0.14113 -0.143055,-0.006 -0.09859,-0.15964 -0.49336,-17.11526 0.459698,-0.0492 -16.82195,0.92035 c -0.516681,-5.42144 -0.502281,-10.87467 -1.007679,-16.32477 l 0.05046,0.49171 z"
           id="path45386"
           sodipodi:nodetypes="ccccccccccccccccccccccccccccc" />
        <g
           id="g97398">
          <path
             id="path54105"
             style="fill:#ffffff;fill-opacity:1;stroke:none;stroke-width:0.665001;paint-order:fill markers stroke"
             d="m 108.56046,96.58754 c 0,1.170839 -0.82433,2.51259 -1.97356,3.24414 -0.57024,0.36299 -1.271,0.54207 -1.89083,0.54207 -0.76728,0 -1.65298,-0.17859 -2.35156,-0.655179 -1.0031,-0.684345 -1.69155,-1.852668 -1.69155,-2.885319 0,-0.97309 0.24295,-1.978787 0.79239,-2.642306 0.46737,-0.56441 1.10198,-1.121571 1.9328,-1.121571 0.38406,0 1.3338,0.01044 2.06741,0.138433 0.84732,0.147829 1.49581,0.500832 1.91038,0.806237 0.97324,0.716971 1.20452,1.597431 1.20452,2.573495 z"
             sodipodi:nodetypes="ssssssssss" />
          <path
             id="path55785"
             style="fill:none;stroke:#ffffff;stroke-width:0.665001;stroke-opacity:0.939759;paint-order:fill markers stroke"
             d="m 110.45943,97.152516 c 0,1.776155 -1.06411,2.810509 -2.17343,3.696814 -0.61486,0.49124 -1.33601,1.1251 -2.11282,1.32739 -0.52683,0.1372 -1.10106,0.34877 -1.92599,0.096 -0.62737,-0.1922 -1.40228,-0.41478 -1.96748,-0.61562 -1.61104,-0.57247 -2.392647,-1.57721 -2.708473,-3.242103 -0.12614,-0.664953 -0.679393,-1.451172 -0.646969,-2.286549 0.06161,-1.587341 0.776281,-2.772184 1.743792,-3.577889 0.94209,-0.78453 1.81723,-1.239542 3.3422,-1.444929 0.99886,-0.134529 2.09924,0.330214 3.09703,0.75462 0.51244,0.217968 1.03271,0.215977 1.42555,0.553033 1.24059,1.374826 1.90983,3.240545 1.92659,4.739233 z"
             sodipodi:nodetypes="cssssssssscc" />
          <path
             style="fill:none;stroke:#ffffff;stroke-width:0.625;stroke-linecap:butt;stroke-linejoin:miter;stroke-miterlimit:4;stroke-dasharray:none;stroke-opacity:1"
             d="m 108.24774,100.80934 c 1.3035,0.77236 2.88751,1.69688 3.92293,2.77993 0.97992,1.02498 1.60285,2.39246 2.19376,3.53359 0.60994,1.17787 1.35279,2.7085 1.47808,3.64902 0.10588,0.79483 0.34297,2.1675 0.0688,3.93316 -0.2319,1.49378 -0.91393,3.68323 -1.80657,5.22134 -2.54848,4.39128 -5.51959,8.53571 -7.06327,11.70878 -0.64047,1.3165 -2.16451,3.02012 -2.94324,6.64214 -0.89477,4.16168 -1.41729,9.02017 -0.98817,11.4736 0.47158,2.69614 1.50035,5.2899 3.35063,7.28204 1.68054,1.80937 3.89021,4.86119 7.61597,6.57734 1.26672,0.58348 4.89092,0.83601 6.93359,0.0418 1.42943,-0.5558 3.26229,-0.76052 4.8841,-1.66018 6.38769,-3.54342 7.79624,-11.71772 9.34519,-16.84774 1.11798,-3.70271 1.69771,-7.72505 2.58306,-11.56562 0.3986,-1.72906 0.19944,-3.68732 1.6104,-6.8001 0.75928,-1.67508 1.81106,-3.32116 3.1749,-4.99576 0.79818,-0.98006 1.81574,-2.03952 2.61384,-2.96188 0.71459,-0.82586 1.62575,-1.50776 2.30187,-2.1766 0.42686,-0.42227 1.02775,-1.16474 1.46963,-1.50853 0.33909,-0.26381 0.57724,-0.62768 0.7127,-0.99304 0.11136,-0.30034 0.16276,-0.4881 0.002,-0.77202 -0.17979,-0.31804 -0.35965,-0.76264 -1.15136,-1.48616 -0.079,-0.0722 -0.42898,-0.23742 -0.6808,-0.14095 -0.42015,0.16094 -1.0623,0.57743 -1.41176,0.95396 -0.50017,0.53892 -1.05017,1.25489 -1.56179,1.78473 -1.37909,1.42825 -2.37748,2.86471 -3.74095,3.96791 -0.81224,0.6572 -1.55473,1.24932 -2.40399,1.5318 -0.47749,0.15883 -1.02451,0.22227 -1.6633,0.14967 -1.06175,-0.12067 -1.44193,-1.08677 -2.27316,-2.25419 -1.01831,-1.43017 -2.17208,-3.20599 -2.56522,-4.63639 -0.46114,-1.67779 -1.29305,-3.42591 -1.38551,-3.64956 -0.14203,-0.34354 -0.20955,-0.93448 -0.44532,-0.97566 -0.35334,-0.0617 -1.83504,0.16853 -2.55367,1.10534 -0.0325,0.0839 -0.24947,0.19395 -0.2579,0.2964 -0.0243,0.29583 0.20023,0.60211 0.34571,0.97666 0.23656,0.60901 0.48475,1.30762 0.75751,1.75849 0.33846,0.55946 0.66405,1.25854 0.98081,1.78389 0.30888,0.51227 0.61092,0.85002 0.78813,1.45327 0.056,0.19074 0.31637,0.41343 0.49551,0.70813 0.22061,0.36294 0.36702,0.80247 0.4495,1.03109 0.15137,0.41957 0.22103,0.86128 0.36631,1.26385 0.20768,0.57545 0.5433,1.10377 0.60807,1.68283 0.17086,1.52746 0.77572,2.0389 1.10971,2.99784 0.43943,1.26172 0.92849,2.67865 0.95346,4.06568 0.0351,1.94938 0.19407,4.69981 -0.33291,6.87991 -0.87902,6.25531 -1.67558,12.50388 -3.98329,17.20491 -0.57788,1.1772 -1.04326,2.25735 -1.87036,3.21627 -1.06016,1.22913 -1.82835,2.89209 -3.14005,3.74032 -0.74351,0.4808 -1.26943,1.10099 -2.0061,1.5027 -1.21669,0.66346 -2.83011,0.69653 -4.74658,0.63635 -1.32115,-0.25684 -3.46503,-0.98805 -4.72785,-1.70608 -0.36308,-0.20644 -0.96862,-0.29734 -1.25584,-0.39907 -0.66652,-0.23607 -1.27186,-0.90962 -1.69312,-1.20486 -1.1149,-0.7814 -1.50953,-1.37883 -2.60914,-2.71671 -0.95746,-1.16493 -2.11652,-3.26114 -2.50974,-5.81199 -0.32816,-2.12881 0.20189,-6.14374 1.05136,-9.34927 0.65408,-2.46819 1.92523,-4.63078 3.02728,-6.85258 1.1146,-2.24707 2.46442,-4.29152 3.20459,-5.97146 0.38211,-0.86727 1.22419,-2.03447 1.90855,-3.14593 1.02801,-1.66959 2.0807,-3.54551 2.87794,-5.32806 0.49367,-1.10381 1.11869,-2.60318 1.40535,-3.92791 0.26991,-1.24728 0.0786,-2.78325 0.0992,-3.97964 0.0243,-1.41775 -0.10691,-2.61219 -0.83539,-3.67563 -0.15002,-0.219 -0.2199,-0.83839 -0.36513,-1.09007 -0.55177,-0.9562 -1.16186,-1.47181 -2.07983,-2.49395 -1.58706,-1.76715 -3.68181,-3.738466 -5.71841,-5.025946"
             id="path59982"
             sodipodi:nodetypes="csssssssssssssssssssssssssssssssscssssssssssscsssscsssssssssssssssc" />
          <path
             id="path83376"
             style="fill:#ffffff;fill-opacity:1;stroke:none;stroke-width:0.624999;stroke-opacity:0.939759;paint-order:fill markers stroke"
             d="m 142.34839,78.074018 c 0,0.559459 -0.39507,1.156345 -1.03989,1.406655 -0.23526,0.09133 -0.59018,0.164465 -0.90731,0.15558 -0.27034,-0.0076 -0.70561,-0.17817 -0.95108,-0.259457 -0.49512,-0.163977 -1.03593,-0.458462 -1.43235,-0.655947 -0.73247,-0.364888 -0.95458,-0.690576 -0.95458,-1.298917 0,-0.454131 0.10907,-1.03032 0.5968,-1.22687 0.51923,-0.209243 1.52349,0.07321 2.18502,0.165507 1.35853,0.18954 2.50339,0.775861 2.50339,1.713449 z"
             sodipodi:nodetypes="sssssssss" />
          <path
             id="path83378"
             style="fill:#ffffff;fill-opacity:0.967872;stroke:none;stroke-width:0.624999;stroke-opacity:0.939759;paint-order:fill markers stroke"
             d="m 152.63356,80.0201 c 0.0701,1.116031 -1.27459,1.765958 -2.80462,1.477646 -0.62469,-0.117715 -1.39295,0.05501 -1.91764,-0.476197 -0.28411,-0.287647 -0.31076,-0.701384 -0.36007,-1.129606 -0.054,-0.469147 -0.11624,-0.952516 -0.11624,-1.230215 0,-0.550723 0.38484,-0.881161 1.00962,-0.978868 0.50887,-0.07958 1.19818,0.07436 1.795,0.196204 0.92842,0.18954 1.41882,0.428659 1.83198,0.861979 0.36224,0.379911 0.53273,0.813151 0.56197,1.279057 z"
             sodipodi:nodetypes="sssssssss" />
          <path
             style="fill:none;stroke:#ffffff;stroke-width:0.5;stroke-linecap:butt;stroke-linejoin:miter;stroke-miterlimit:4;stroke-dasharray:none;stroke-opacity:1"
             d="m 137.54312,76.570469 c -2.71004,-0.728765 -7.3961,0.09279 -9.46881,1.652322 -2.22614,1.674973 -3.01807,3.605837 -3.60948,5.554046 -0.67727,2.231062 -0.82425,4.374702 -0.82412,6.466845 1.1e-4,1.974266 0.15617,3.591055 0.33401,5.599901 0.17286,1.952598 0.88722,3.817865 1.20916,5.086807 0.48428,1.90878 0.77971,3.02455 1.43915,4.59575 0.45122,1.0751 1.21541,2.66041 1.76184,3.68121"
             id="path85815"
             sodipodi:nodetypes="cssssssc" />
          <path
             style="fill:none;stroke:#ffffff;stroke-width:0.5;stroke-linecap:butt;stroke-linejoin:miter;stroke-miterlimit:4;stroke-dasharray:none;stroke-opacity:1"
             d="m 129.74513,108.47643 c -0.90042,-2.04655 -2.32318,-4.66837 -3.36512,-8.670762 -0.39797,-1.528682 -0.89301,-3.239682 -1.05749,-5.225031 -0.0128,-0.15414 -0.12102,-2.632922 0.0856,-4.976411 0.15007,-1.702013 0.43087,-3.429377 0.81425,-4.869505 0.24694,-0.92761 0.55061,-2.352718 1.30023,-3.33756 1.12987,-1.484399 1.76131,-1.585517 2.77329,-2.392667 0.68822,-0.548917 2.02168,-0.97341 3.18616,-1.142937 0.74019,-0.107757 1.42566,-0.08735 2.03338,-0.08179 1.05889,0.0097 1.82489,0.07664 1.82489,0.07664"
             id="path85817"
             sodipodi:nodetypes="cssssssssc" />
          <path
             style="fill:none;stroke:#ffffff;stroke-width:0.5;stroke-linecap:butt;stroke-linejoin:miter;stroke-miterlimit:4;stroke-dasharray:none;stroke-opacity:1"
             d="m 152.03641,80.748952 c 0.72943,0.239784 1.16135,0.1702 1.57735,0.256123 0.54357,0.112273 0.89042,0.478025 1.36605,0.747223 0.67374,0.381321 1.47916,0.757431 2.0898,1.110013 1.09492,0.632207 1.59279,1.645914 1.9497,2.539229 0.23911,0.598475 0.31964,1.31988 0.41273,2.040127 0.0804,0.621867 0.24849,1.181139 0.33361,1.907589 0.23922,2.04171 -0.32373,5.304699 -0.85681,6.643682 -0.28478,0.715298 -0.49544,1.61341 -0.73019,2.403453 -0.26665,0.897417 -0.61254,1.633559 -1.12669,2.412159 -1.43319,2.17031 -2.81269,4.63617 -4.153,6.44257 -1.2508,1.68576 -1.9466,1.92702 -3.25466,3.52093 -0.35999,0.43867 -0.57469,0.97865 -0.95848,1.395"
             id="path85819"
             sodipodi:nodetypes="csssssssssssc" />
          <path
             style="fill:none;stroke:#ffffff;stroke-width:0.5;stroke-linecap:butt;stroke-linejoin:miter;stroke-miterlimit:4;stroke-dasharray:none;stroke-opacity:1"
             d="m 149.55566,113.18494 c 0.44775,-0.49341 0.97138,-0.83494 1.37235,-1.34508 2.28446,-2.90645 4.7441,-5.22046 7.275,-9.42489 1.33831,-2.22325 2.55378,-4.431624 2.83141,-7.487822 0.10965,-1.207015 0.58469,-2.425515 0.71369,-3.892262 0.0717,-0.815279 0.30661,-2.610932 -0.13233,-4.06705 -0.56948,-1.889171 -1.83155,-3.485544 -3.06686,-4.813862 -0.73252,-0.787674 -2.38937,-1.877954 -3.29367,-2.291076 -1.21959,-0.55716 -2.01477,-0.707461 -3.23436,-0.674557"
             id="path85821"
             sodipodi:nodetypes="csssssssc" />
        </g>
      </g>
      <ellipse
         style="fill:#ffffff;fill-opacity:1;stroke:#ffffff;stroke-width:0;stroke-miterlimit:4;stroke-dasharray:none;stroke-dashoffset:0;stroke-opacity:1;paint-order:fill markers stroke"
         id="path114638"
         cx="85.126144"
         cy="13.013222"
         rx="1.0266768"
         ry="0.97929168" />
      <ellipse
         style="fill:#ffffff;fill-opacity:1;stroke:#ffffff;stroke-width:0;stroke-miterlimit:4;stroke-dasharray:none;stroke-dashoffset:0;stroke-opacity:1;paint-order:fill markers stroke"
         id="ellipse114720"
         cx="95.471924"
         cy="12.918449"
         rx="1.2478071"
         ry="1.200422" />
      <ellipse
         style="fill:#ffffff;fill-opacity:1;stroke:#ffffff;stroke-width:0;stroke-miterlimit:4;stroke-dasharray:none;stroke-dashoffset:0;stroke-opacity:1;paint-order:fill markers stroke"
         id="ellipse114722"
         cx="105.61233"
         cy="14.529545"
         rx="1.2478071"
         ry="1.200422" />
      <ellipse
         style="fill:#ffffff;fill-opacity:1;stroke:#ffffff;stroke-width:0;stroke-miterlimit:4;stroke-dasharray:none;stroke-dashoffset:0;stroke-opacity:1;paint-order:fill markers stroke"
         id="ellipse114724"
         cx="115.68166"
         cy="16.922489"
         rx="1.46104"
         ry="1.3978598" />
      <ellipse
         style="fill:#ffffff;fill-opacity:1;stroke:#ffffff;stroke-width:0;stroke-miterlimit:4;stroke-dasharray:none;stroke-dashoffset:0;stroke-opacity:1;paint-order:fill markers stroke"
         id="ellipse114726"
         cx="125.38772"
         cy="20.381603"
         rx="1.1846271"
         ry="1.1767294" />
      <ellipse
         style="fill:#ffffff;fill-opacity:1;stroke:#ffffff;stroke-width:0;stroke-miterlimit:4;stroke-dasharray:none;stroke-dashoffset:0;stroke-opacity:1;paint-order:fill markers stroke"
         id="ellipse114728"
         cx="134.67519"
         cy="24.58308"
         rx="1.1846271"
         ry="1.1767294" />
      <ellipse
         style="fill:#ffffff;fill-opacity:1;stroke:#ffffff;stroke-width:0;stroke-miterlimit:4;stroke-dasharray:none;stroke-dashoffset:0;stroke-opacity:1;paint-order:fill markers stroke"
         id="ellipse114730"
         cx="143.25978"
         cy="30.332474"
         rx="1.1135495"
         ry="1.1293443" />
      <ellipse
         style="fill:#ffffff;fill-opacity:1;stroke:#ffffff;stroke-width:0;stroke-miterlimit:4;stroke-dasharray:none;stroke-dashoffset:0;stroke-opacity:1;paint-order:fill markers stroke"
         id="ellipse114732"
         cx="150.92827"
         cy="37.290184"
         rx="1.3583723"
         ry="1.310987" />
      <ellipse
         style="fill:#ffffff;fill-opacity:1;stroke:#ffffff;stroke-width:0;stroke-miterlimit:4;stroke-dasharray:none;stroke-dashoffset:0;stroke-opacity:1;paint-order:fill markers stroke"
         id="ellipse114734"
         cx="157.42793"
         cy="45.227188"
         rx="1.1135494"
         ry="1.1293442" />
      <ellipse
         style="fill:#ffffff;fill-opacity:1;stroke:#ffffff;stroke-width:0;stroke-miterlimit:4;stroke-dasharray:none;stroke-dashoffset:0;stroke-opacity:1;paint-order:fill markers stroke"
         id="ellipse114736"
         cx="164.66206"
         cy="52.54818"
         rx="1.0503693"
         ry="1.0424716" />
      <ellipse
         style="fill:#ffffff;fill-opacity:1;stroke:#ffffff;stroke-width:0;stroke-miterlimit:4;stroke-dasharray:none;stroke-dashoffset:0;stroke-opacity:1;paint-order:fill markers stroke"
         id="ellipse114738"
         cx="169.77174"
         cy="61.511864"
         rx="1.247807"
         ry="1.2083194" />
      <ellipse
         style="fill:#ffffff;fill-opacity:1;stroke:#ffffff;stroke-width:0;stroke-miterlimit:4;stroke-dasharray:none;stroke-dashoffset:0;stroke-opacity:1;paint-order:fill markers stroke"
         id="ellipse114740"
         cx="173.44411"
         cy="71.107346"
         rx="1.1451393"
         ry="1.1214468" />
      <ellipse
         style="fill:#ffffff;fill-opacity:1;stroke:#ffffff;stroke-width:0;stroke-miterlimit:4;stroke-dasharray:none;stroke-dashoffset:0;stroke-opacity:1;paint-order:fill markers stroke"
         id="ellipse114742"
         cx="176.27931"
         cy="80.852882"
         rx="1.3267821"
         ry="1.3741672" />
      <ellipse
         style="fill:#ffffff;fill-opacity:1;stroke:#ffffff;stroke-width:0;stroke-miterlimit:4;stroke-dasharray:none;stroke-dashoffset:0;stroke-opacity:1;paint-order:fill markers stroke"
         id="ellipse114744"
         cx="177.53502"
         cy="91.143349"
         rx="1.2714995"
         ry="1.2872946" />
      <ellipse
         style="fill:#ffffff;fill-opacity:1;stroke:#ffffff;stroke-width:0;stroke-miterlimit:4;stroke-dasharray:none;stroke-dashoffset:0;stroke-opacity:1;paint-order:fill markers stroke"
         id="ellipse114746"
         cx="177.46394"
         cy="101.45751"
         rx="1.5163224"
         ry="1.49263" />
      <ellipse
         style="fill:#ffffff;fill-opacity:1;stroke:#ffffff;stroke-width:0;stroke-miterlimit:4;stroke-dasharray:none;stroke-dashoffset:0;stroke-opacity:1;paint-order:fill markers stroke"
         id="ellipse114748"
         cx="175.94762"
         cy="111.70058"
         rx="1.2478069"
         ry="1.232012" />
      <ellipse
         style="fill:#ffffff;fill-opacity:1;stroke:#ffffff;stroke-width:0;stroke-miterlimit:4;stroke-dasharray:none;stroke-dashoffset:0;stroke-opacity:1;paint-order:fill markers stroke"
         id="ellipse114750"
         cx="173.59416"
         cy="121.66724"
         rx="1.2478069"
         ry="1.232012" />
      <ellipse
         style="fill:#ffffff;fill-opacity:1;stroke:#ffffff;stroke-width:0;stroke-miterlimit:4;stroke-dasharray:none;stroke-dashoffset:0;stroke-opacity:1;paint-order:fill markers stroke"
         id="ellipse114752"
         cx="169.19527"
         cy="131.06529"
         rx="1.3346795"
         ry="1.3267822" />
      <ellipse
         style="fill:#ffffff;fill-opacity:1;stroke:#ffffff;stroke-width:0;stroke-miterlimit:4;stroke-dasharray:none;stroke-dashoffset:0;stroke-opacity:1;paint-order:fill markers stroke"
         id="ellipse114754"
         cx="163.89604"
         cy="139.84732"
         rx="1.1214466"
         ry="1.0898569" />
      <ellipse
         style="fill:#ffffff;fill-opacity:1;stroke:#ffffff;stroke-width:0;stroke-miterlimit:4;stroke-dasharray:none;stroke-dashoffset:0;stroke-opacity:1;paint-order:fill markers stroke"
         id="ellipse114756"
         cx="157.041"
         cy="147.62639"
         rx="1.1056516"
         ry="1.0819594" />
      <ellipse
         style="fill:#ffffff;fill-opacity:1;stroke:#ffffff;stroke-width:0;stroke-miterlimit:4;stroke-dasharray:none;stroke-dashoffset:0;stroke-opacity:1;paint-order:fill markers stroke"
         id="ellipse114758"
         cx="149.7437"
         cy="154.67097"
         rx="1.2951919"
         ry="1.3030897" />
      <ellipse
         style="fill:#ffffff;fill-opacity:1;stroke:#ffffff;stroke-width:0;stroke-miterlimit:4;stroke-dasharray:none;stroke-dashoffset:0;stroke-opacity:1;paint-order:fill markers stroke"
         id="ellipse114760"
         cx="142.03572"
         cy="161.5892"
         rx="1.2004217"
         ry="1.2083195" />
      <ellipse
         style="fill:#ffffff;fill-opacity:1;stroke:#ffffff;stroke-width:0;stroke-miterlimit:4;stroke-dasharray:none;stroke-dashoffset:0;stroke-opacity:1;paint-order:fill markers stroke"
         id="ellipse114762"
         cx="133.22997"
         cy="166.86473"
         rx="1.4926296"
         ry="1.4768349" />
      <ellipse
         style="fill:#ffffff;fill-opacity:1;stroke:#ffffff;stroke-width:0;stroke-miterlimit:4;stroke-dasharray:none;stroke-dashoffset:0;stroke-opacity:1;paint-order:fill markers stroke"
         id="ellipse114764"
         cx="123.80035"
         cy="170.92406"
         rx="1.2714993"
         ry="1.2714996" />
      <ellipse
         style="fill:#ffffff;fill-opacity:1;stroke:#ffffff;stroke-width:0;stroke-miterlimit:4;stroke-dasharray:none;stroke-dashoffset:0;stroke-opacity:1;paint-order:fill markers stroke"
         id="ellipse114766"
         cx="114.36282"
         cy="175.24399"
         rx="1.374167"
         ry="1.3583722" />
      <ellipse
         style="fill:#ffffff;fill-opacity:1;stroke:#ffffff;stroke-width:0;stroke-miterlimit:4;stroke-dasharray:none;stroke-dashoffset:0;stroke-opacity:1;paint-order:fill markers stroke"
         id="ellipse114768"
         cx="104.17504"
         cy="176.21538"
         rx="1.453142"
         ry="1.4136548" />
      <ellipse
         style="fill:#ffffff;fill-opacity:1;stroke:#ffffff;stroke-width:0;stroke-miterlimit:4;stroke-dasharray:none;stroke-dashoffset:0;stroke-opacity:1;paint-order:fill markers stroke"
         id="ellipse114770"
         cx="93.892479"
         cy="176.80769"
         rx="1.389962"
         ry="1.3425772" />
      <ellipse
         style="fill:#ffffff;fill-opacity:1;stroke:#ffffff;stroke-width:0;stroke-miterlimit:4;stroke-dasharray:none;stroke-dashoffset:0;stroke-opacity:1;paint-order:fill markers stroke"
         id="ellipse114772"
         cx="83.609909"
         cy="176.36543"
         rx="1.389962"
         ry="1.3425772" />
      <ellipse
         style="fill:#ffffff;fill-opacity:1;stroke:#ffffff;stroke-width:0;stroke-miterlimit:4;stroke-dasharray:none;stroke-dashoffset:0;stroke-opacity:1;paint-order:fill markers stroke"
         id="ellipse114774"
         cx="73.745895"
         cy="173.50653"
         rx="1.3030894"
         ry="1.3109872" />
      <ellipse
         style="fill:#ffffff;fill-opacity:1;stroke:#ffffff;stroke-width:0;stroke-miterlimit:4;stroke-dasharray:none;stroke-dashoffset:0;stroke-opacity:1;paint-order:fill markers stroke"
         id="ellipse114776"
         cx="63.976669"
         cy="170.0948"
         rx="1.2636018"
         ry="1.2636021" />
      <ellipse
         style="fill:#ffffff;fill-opacity:1;stroke:#ffffff;stroke-width:0;stroke-miterlimit:4;stroke-dasharray:none;stroke-dashoffset:0;stroke-opacity:1;paint-order:fill markers stroke"
         id="ellipse114778"
         cx="54.365402"
         cy="166.48564"
         rx="1.4610397"
         ry="1.4136549" />
      <ellipse
         style="fill:#ffffff;fill-opacity:1;stroke:#ffffff;stroke-width:0;stroke-miterlimit:4;stroke-dasharray:none;stroke-dashoffset:0;stroke-opacity:1;paint-order:fill markers stroke"
         id="ellipse114780"
         cx="45.393814"
         cy="161.29697"
         rx="1.3978596"
         ry="1.3425773" />
      <ellipse
         style="fill:#ffffff;fill-opacity:1;stroke:#ffffff;stroke-width:0;stroke-miterlimit:4;stroke-dasharray:none;stroke-dashoffset:0;stroke-opacity:1;paint-order:fill markers stroke"
         id="ellipse114782"
         cx="38.183395"
         cy="154.15761"
         rx="1.5163223"
         ry="1.5005276" />
      <ellipse
         style="fill:#ffffff;fill-opacity:1;stroke:#ffffff;stroke-width:0;stroke-miterlimit:4;stroke-dasharray:none;stroke-dashoffset:0;stroke-opacity:1;paint-order:fill markers stroke"
         id="ellipse114784"
         cx="31.770615"
         cy="146.08635"
         rx="1.5163223"
         ry="1.5005276" />
      <ellipse
         style="fill:#ffffff;fill-opacity:1;stroke:#ffffff;stroke-width:0;stroke-miterlimit:4;stroke-dasharray:none;stroke-dashoffset:0;stroke-opacity:1;paint-order:fill markers stroke"
         id="ellipse114786"
         cx="25.397324"
         cy="137.98351"
         rx="1.2557044"
         ry="1.2478073" />
      <ellipse
         style="fill:#ffffff;fill-opacity:1;stroke:#ffffff;stroke-width:0;stroke-miterlimit:4;stroke-dasharray:none;stroke-dashoffset:0;stroke-opacity:1;paint-order:fill markers stroke"
         id="ellipse114788"
         cx="20.848343"
         cy="128.69603"
         rx="1.1135492"
         ry="1.1056521" />
      <ellipse
         style="fill:#ffffff;fill-opacity:1;stroke:#ffffff;stroke-width:0;stroke-miterlimit:4;stroke-dasharray:none;stroke-dashoffset:0;stroke-opacity:1;paint-order:fill markers stroke"
         id="ellipse114790"
         cx="17.902573"
         cy="118.91889"
         rx="1.326782"
         ry="1.3267825" />
      <ellipse
         style="fill:#ffffff;fill-opacity:1;stroke:#ffffff;stroke-width:0;stroke-miterlimit:4;stroke-dasharray:none;stroke-dashoffset:0;stroke-opacity:1;paint-order:fill markers stroke"
         id="ellipse114792"
         cx="14.822556"
         cy="109.04699"
         rx="1.2162168"
         ry="1.2004223" />
      <ellipse
         style="fill:#ffffff;fill-opacity:1;stroke:#ffffff;stroke-width:0;stroke-miterlimit:4;stroke-dasharray:none;stroke-dashoffset:0;stroke-opacity:1;paint-order:fill markers stroke"
         id="ellipse114794"
         cx="12.990311"
         cy="98.859207"
         rx="1.358372"
         ry="1.3267825" />
      <ellipse
         style="fill:#ffffff;fill-opacity:1;stroke:#ffffff;stroke-width:0;stroke-miterlimit:4;stroke-dasharray:none;stroke-dashoffset:0;stroke-opacity:1;paint-order:fill markers stroke"
         id="ellipse114796"
         cx="12.32692"
         cy="89.350609"
         rx="1.358372"
         ry="1.3267825" />
      <ellipse
         style="fill:#ffffff;fill-opacity:1;stroke:#ffffff;stroke-width:0;stroke-miterlimit:4;stroke-dasharray:none;stroke-dashoffset:0;stroke-opacity:1;paint-order:fill markers stroke"
         id="ellipse114798"
         cx="14.198654"
         cy="79.233887"
         rx="1.6031948"
         ry="1.6031953" />
      <ellipse
         style="fill:#ffffff;fill-opacity:1;stroke:#ffffff;stroke-width:0;stroke-miterlimit:4;stroke-dasharray:none;stroke-dashoffset:0;stroke-opacity:1;paint-order:fill markers stroke"
         id="ellipse114800"
         cx="17.43663"
         cy="69.401489"
         rx="1.0503689"
         ry="1.042472" />
      <ellipse
         style="fill:#ffffff;fill-opacity:1;stroke:#ffffff;stroke-width:0;stroke-miterlimit:4;stroke-dasharray:none;stroke-dashoffset:0;stroke-opacity:1;paint-order:fill markers stroke"
         id="ellipse114802"
         cx="21.259018"
         cy="59.948151"
         rx="1.4452444"
         ry="1.4926301" />
      <ellipse
         style="fill:#ffffff;fill-opacity:1;stroke:#ffffff;stroke-width:0;stroke-miterlimit:4;stroke-dasharray:none;stroke-dashoffset:0;stroke-opacity:1;paint-order:fill markers stroke"
         id="ellipse114804"
         cx="26.574051"
         cy="51.079247"
         rx="1.0740614"
         ry="1.074062" />
      <ellipse
         style="fill:#ffffff;fill-opacity:1;stroke:#ffffff;stroke-width:0;stroke-miterlimit:4;stroke-dasharray:none;stroke-dashoffset:0;stroke-opacity:1;paint-order:fill markers stroke"
         id="ellipse114806"
         cx="33.010513"
         cy="42.992188"
         rx="1.3978593"
         ry="1.3899624" />
      <ellipse
         style="fill:#ffffff;fill-opacity:1;stroke:#ffffff;stroke-width:0;stroke-miterlimit:4;stroke-dasharray:none;stroke-dashoffset:0;stroke-opacity:1;paint-order:fill markers stroke"
         id="ellipse114808"
         cx="39.881363"
         cy="35.371086"
         rx="1.2714992"
         ry="1.2714998" />
      <ellipse
         style="fill:#ffffff;fill-opacity:1;stroke:#ffffff;stroke-width:0;stroke-miterlimit:4;stroke-dasharray:none;stroke-dashoffset:0;stroke-opacity:1;paint-order:fill markers stroke"
         id="ellipse114810"
         cx="47.684128"
         cy="28.595016"
         rx="1.192524"
         ry="1.1925247" />
      <ellipse
         style="fill:#ffffff;fill-opacity:1;stroke:#ffffff;stroke-width:0;stroke-miterlimit:4;stroke-dasharray:none;stroke-dashoffset:0;stroke-opacity:1;paint-order:fill markers stroke"
         id="ellipse114812"
         cx="56.031784"
         cy="22.624496"
         rx="1.2320116"
         ry="1.2241147" />
      <ellipse
         style="fill:#ffffff;fill-opacity:1;stroke:#ffffff;stroke-width:0;stroke-miterlimit:4;stroke-dasharray:none;stroke-dashoffset:0;stroke-opacity:1;paint-order:fill markers stroke"
         id="ellipse114814"
         cx="65.169205"
         cy="17.996552"
         rx="1.4294493"
         ry="1.4294499" />
      <ellipse
         style="fill:#ffffff;fill-opacity:1;stroke:#ffffff;stroke-width:0;stroke-miterlimit:4;stroke-dasharray:none;stroke-dashoffset:0;stroke-opacity:1;paint-order:fill markers stroke"
         id="ellipse114816"
         cx="75.048996"
         cy="14.956009"
         rx="1.2636015"
         ry="1.216217" />
    </g>
  </g>
</svg>
